<svg width="180" height="60" preserveAspectRatio="xMinYMin meet" style="transform: scale(1.5);">
  <g id="svgplaceholder">
    <g>
      <path fill="#FFDE17" d="m167.4991745189834,31.563193146771198 c-0.047819211832295754,0 -0.09620100262732444,-0.011369686442786719 -0.14008216172048965,-0.0321678933503233 c-0.09845131847825576,-0.047697221174617374 -9.955397324521195,-4.7644532383784775 -19.6081271670921,-6.6168802002763965 c-10.474657707123653,-2.0104933343952003 -20.576044272474032,-2.2683911000486536 -28.2063027440202,-2.2683911000486536 c-2.7802652338259355,0 -5.487113913015231,0.036604844157264345 -8.104793826611358,0.07182314118735991 c-1.5138999887142035,0.020520897482102764 -2.99910845032903,0.04048717611333796 -4.45309377951218,0.05268879083242611 c-1.706864572931586,0.01469739954799253 -3.46576769991596,0.02190744460927195 -5.227483721714001,0.02190744460927195 c-11.27464499212982,0 -32.22480427482123,-0.32056969580149797 -45.86059317354099,-2.4683311957864387 c-13.127498805890589,-2.0676190760345676 -25.18187824036819,-2.6929518303878357 -25.30227013839303,-2.6987753283219433 c-0.15442792527017843,-0.00804197333758083 -0.28072690240371234,-0.12340269431805051 -0.3001358766179968,-0.2742590217540488 c-0.01940897421428476,-0.15113363686143336 0.07341655463664226,-0.2942253003852843 0.22081224287265933,-0.3397040461564308 c0.21546774272669694,-0.06683157152955102 21.669697776026766,-6.714493118029101 30.174485245141213,-7.9573939628234855 c5.8215671063599315,-0.8505080078055286 11.510928156477632,-1.3000265864337517 16.452903054604693,-1.3000265864337517 c5.1813522467699045,0 9.100558590648575,0.49083768301786396 11.333434493735405,1.418992329944861 c3.985309371999783,1.656923816967082 9.637258921095748,4.244775375115495 13.930580275191788,7.1626251495301565 c0.1319247667608627,0.09012556326599229 0.17552463637266183,0.26344395416212973 0.1015455027732866,0.4037625234316438 c-0.05485144886645696,0.1045456533885508 -0.16314789919253844,0.16943605894006536 -0.2829772182546436,0.16943605894006536 c-0.03797407998447006,0 -0.07538558100620747,-0.0066554262104117365 -0.11082805565837911,-0.019688969205801325 c-0.07060365982297773,-0.025789776565345444 -7.300024620421961,-2.657178914506871 -11.980681590359595,-4.3246404896404345 c-3.7273669175867528,-1.3280348384025675 -7.145315405670417,-1.9203677711292082 -11.082242986875173,-1.9203677711292082 c-2.4514378301085618,0 -4.906251133993521,0.2143601858603442 -7.74868134320144,0.46255212162361337 c-0.5099778297173632,0.04464681749484546 -1.026425317506155,0.08984825384055814 -1.5541243845496049,0.13449507133540348 c-6.542793336583495,0.5557280885693784 -15.39469202570413,2.851572821735979 -17.748803695259905,3.4846702400013916 c0.9105340511831804,0.7670378707499481 3.273928273624045,2.542650121802703 6.435340754701512,3.3218896072717383 c4.0919180854376656,1.0082970708773729 21.535241403933608,1.6563691981162112 24.501157695461398,1.6777220238746153 l0.3864917473974956,0.001109237701735287 c2.9065642109594694,0 11.82681624405215,-0.1625033233042194 20.45340205859826,-0.3200150769506302 c8.53263512776972,-0.15557058766837376 16.592141347881086,-0.3025445831482991 19.193506471557956,-0.3025445831482991 c8.028283087679686,0 19.25595273642131,1.45088291386975 26.116603186948883,3.3751330169550315 c11.821190454424821,3.3155114904867604 18.541477453750538,8.470416399876054 18.607861771353022,8.521995953006746 c0.1285492929844655,0.09983139315617583 0.15949113593477485,0.27814135371012155 0.07257268619254265,0.4143002815981283 c-0.05794563316148759,0.09262134809489626 -0.15920984645340827,0.14808323318166103 -0.2694753231490537,0.14808323318166103 z"/>
      <path fill="#F26522" d="m53.60309448734055,34.672941043586064 c-0.14092603016458916,0 -0.2635682440403584,-0.0895709444151247 -0.3049177978012261,-0.22295677804879194 c-3.6300407570339646,-11.734625646657559 -22.33550997842114,-12.646696346909396 -27.98211502737114,-12.646696346909396 c-2.37323935428869,0 -3.8052841039252585,0.13920933156777907 -4.311042591422126,0.19910816746148405 c-3.800783472223395,0.4495185786282248 -8.174834907471604,2.8224553320654278 -7.993684481471615,8.030049032287147 c0.005907079108695351,0.1625033233042194 -0.11307837150931069,0.30115803602112895 -0.27678884966458156,0.32251086177953586 c-0.007032237034161122,0.0008319282763014659 -0.03516118517080567,0.0030504036797720474 -0.04191213272360043,0.0030504036797720474 c-0.14880213564284944,0 -0.27650756018321526,-0.09983139315617583 -0.31054358742855565,-0.24292305668002753 c-0.6627180180993448,-2.7828000842283913 0.4531573544813421,-5.200660964585875 1.4376705392638978,-7.334002374448257 c1.0317698176521177,-2.2356685878474627 1.777186943273195,-3.8504413721486017 0.12376737180123597,-5.02040983805389 c-0.10576484499378336,-0.074873544867132 -0.15442792527017843,-0.20382242769385867 -0.12404866128260211,-0.32861166913907913 c0.030379263987576125,-0.12478924144522002 0.13304992468632848,-0.21796520839098388 0.26159921767079264,-0.2376541775967844 c0.8343046017328756,-0.12645309799782276 1.6002558594937017,-0.18773848101869753 2.342016221857015,-0.18773848101869753 c1.5088367780496075,0 2.815988997959474,0.2540154336973799 4.470815016838265,0.5756943672006126 c2.6584668883942646,0.5166274595832088 6.29863406675742,1.223766494439451 13.36068778594337,1.4034630021205674 c6.0522244810804136,0.1541840405412051 13.259704862132818,1.2936484696487738 18.522349769017623,2.125576745950236 c1.4185428545309797,0.22406601575052792 2.632025677145819,0.41596413815073136 3.6469181259159504,0.5607196582271876 c3.994029345922142,0.5704254881173694 7.472455072499593,0.7856176022540157 12.738194163679427,1.1114561771387534 c2.9518518174594677,0.18274691136088841 6.294414724536923,0.3896197427345188 10.627116606024265,0.7099121291105809 c4.589237888493538,0.3394267367309984 10.25018870099323,0.5113585804999641 16.826174196377966,0.5113585804999641 c11.577875053042845,0 22.139451209908728,-0.5410306890213844 22.242965739051584,-0.5465768775300608 l0.0008438684440993362,0 c0.16539821504346994,0 0.2925410606211028,0.09955408373074204 0.32657708786644385,0.2420911284037257 c0.03516118517080567,0.14863785203252824 -0.04191213272360043,0.300048798319395 -0.18396332081365535,0.3605022530639673 c-7.17681982758346,3.0565044871315723 -15.877103486247584,4.480488386734242 -27.38071811620968,4.480488386734242 c-4.866026738158121,0 -9.525024418030535,-0.23959534357482223 -14.03071933055824,-0.4711487138120625 c-3.793751235189235,-0.19494852607997656 -7.3621895958039465,-0.3779727468662984 -10.493504102375203,-0.3779727468662984 c-6.419025964782258,0 -10.078320827878333,0.8233316841130136 -11.865071613517983,2.669935148076827 c-0.9622913157546076,0.9944315996056812 -1.3906951958757003,2.2966766614429033 -1.309965114723531,3.981331420953365 c0.0073135265155275814,0.15778906307184437 -0.10604613447514985,0.2972757040650558 -0.2641308230030912,0.3244520277575711 c-0.009001263403726272,0.0016638565526029313 -0.0455688959813642,0.004991569657808781 -0.05457015938509052,0.004991569657808781 z"/>
      <path fill="#F26522" d="m27.903643601258118,43.873235851203916 c-0.07032237034161119,0 -0.13923829327639045,-0.023571301161874923 -0.1946523211055799,-0.06572233382781573 c-4.6027397835991275,-3.4838383117250906 -5.840976080574216,-10.437649463903579 -2.8598701570526393,-15.904804786331354 c-1.1544120315278874,-0.3907289804362546 -2.234563639975033,-0.589005219621437 -3.212325877204794,-0.589005219621437 c-3.284335984434603,0 -5.619601258738824,2.2830884995966474 -6.7526352896828605,6.6021828007284045 c-0.0329108693198741,0.1258984791469547 -0.14317634601552034,0.21990637436901994 -0.2742572443322834,0.23404915506614535 c-0.005625789627328909,0.0005546188508676449 -0.028691527099377397,0.0022184754034705744 -0.034598606208072875,0.0022184754034705744 c-0.12011060854347196,0 -0.22896963783228677,-0.06572233382781573 -0.2841023761801089,-0.17137722491810137 c-0.6393709911459292,-1.2376319657111423 -0.6573735179533824,-2.9211774875198677 -0.04894436975776146,-4.618865790025717 c0.7209449407421974,-2.012989119224105 2.204465665468824,-3.679341456655936 3.9684320031177958,-4.457194394997801 c1.783375311863257,-0.7864495305303166 4.610053310114655,-1.2196068530579434 7.958804585782174,-1.2196068530579434 c3.579971229350736,0 7.357688964102085,0.4794679965750763 10.636961737872088,1.3496649735864068 c0.14486408290371922,0.03854601013530121 0.24162766449377537,0.16860413066376373 0.23572058538508048,0.3164100544199898 c-0.006188368590061816,0.14836054260709441 -0.11392223995341029,0.2700993803725424 -0.2618805071521609,0.2964437757887553 c-0.05935208056831995,0.010815067591919051 -5.985558873996568,1.1411282856601723 -8.495223626747983,6.473788536752545 c-1.868043445754557,3.9702390439360116 -1.9158626575868511,8.60213837695712 -0.11645384528570803,11.263199623420062 c0.0869184497422315,0.12867157340129287 0.06694689656521403,0.2983849417667922 -0.04753792235092913,0.4040398328570766 c-0.058789501605587054,0.054352647385029165 -0.13642539846272603,0.08457937475731561 -0.21743676909626167,0.08457937475731561 z"/>
      <path fill="#FFDE17" d="m40.39036496859593,49.53922203166775 c-6.295821171943756,0 -11.41782133814534,-5.049804637149876 -11.41782133814534,-11.256544197209653 c0,-0.5055350825658552 0.03741150102173726,-1.0285406589340407 0.11110934513974549,-1.5537647107056978 c0.02165929006521628,-0.15501596881750657 0.15724082008384296,-0.27176323692514454 0.3158880875745187,-0.27176323692514454 c0.17580592585402804,0.006378116784977909 0.3077306926148906,0.13283121478280024 0.3184196929068166,0.2945026098107186 c0.03909923790993588,0.6006522154896566 0.13867571431365683,1.1996405744267087 0.2956352449161328,1.780326511285129 c1.085777398074475,4.017104336834327 4.785577946487317,6.8229211033737265 8.997325350987088,6.8229211033737265 c0.8075821010030604,0 1.6165706494129553,-0.10482296281398429 2.4044624867203654,-0.3116957941876153 c4.963634188192276,-1.3044635372406927 7.925893716462301,-6.347058129329289 6.603551864558646,-11.241014869385358 c-0.6697502551335078,-2.476650478549453 -2.3023544049843463,-4.509883185830227 -4.597395283453164,-5.725607706932096 c-0.14458279342235256,-0.07653740141973464 -0.2061851898416041,-0.24736000748696885 -0.1437389249782535,-0.39710709722123205 c0.04922565923912785,-0.11813381523480779 0.1651169255621038,-0.1943939072291089 0.2947913764720342,-0.1943939072291089 c0.031223132431675373,0 0.06244626486335075,0.00471426023237496 0.09254423936956052,0.013865471271691063 c4.7940166309283105,1.4128915225853167 8.143049196077197,5.847623854122979 8.143049196077197,10.784286245695855 c0,6.206184941208908 -5.122000166201584,11.255989578358786 -11.41782133814534,11.255989578358786 z"/>
      <path fill="#FFDE17" d="m23.477553611957102,40.33920453347531 c-0.07510429152484085,0 -0.14795826719875024,-0.026621704841646873 -0.20562261087887118,-0.074318926016264 c-0.04697534338819636,-0.03910062898616907 -4.7481664454655785,-3.9411215542654605 -7.495239520490274,-5.6404737133239164 c-0.09366939729502632,-0.05768036049023481 -0.14936471460558207,-0.15723444422097718 -0.14936471460558207,-0.26649435784190145 c0,-2.221248497724904 2.6739378098694195,-6.489040555151406 6.331826225558661,-6.489040555151406 c0.447250275372648,0 0.8995637614098881,0.06516771497694822 1.3440011419688722,0.1935619789528074 c0.09001263403726244,0.02606708599077931 0.16342918867390527,0.08901632556425683 0.20140326865837443,0.17304108147070493 c0.03825536946583653,0.08485668418274954 0.03713021154037083,0.1808057453828517 -0.003094184295030903,0.2639985730129985 c-2.5324492007420982,5.2220137903442785 0.23797090123601228,11.33280428920395 0.26609984937265657,11.394089672224824 c0.061883685900617984,0.13255390535736641 0.021096711102483404,0.2931160626835493 -0.09732616055279025,0.3813004599715043 c-0.05513273834782333,0.04131910438963949 -0.12348608231986924,0.06433578670064667 -0.19268329473601514,0.06433578670064667 z"/>
    </g>
    <g>
      <path fill="#FFDE17" d="m68.54462915856334,45.14580880451973 c-0.17580592585402804,0 -0.31898227186954964,-0.1414278069712487 -0.31898227186954964,-0.31474619786738744 l0,-2.1890806043745807 l-5.456734649027652,0 l0,2.1890806043745807 c0,0.17331839089613915 -0.14317634601552034,0.31474619786738744 -0.31898227186954964,0.31474619786738744 l-2.2854770361023595,0 c-0.17580592585402804,0 -0.31898227186954964,-0.1414278069712487 -0.31898227186954964,-0.31474619786738744 l0,-6.935508730099857 c0,-0.8993144666818832 0.3153255086117847,-1.6660750280063956 0.937256551912991,-2.2794834770660066 c0.6452780702546247,-0.640584772752126 1.411791906978184,-0.9653141099351286 2.277882220105467,-0.9653141099351286 l7.768934185859825,0 c0.17580592585402804,0 0.31898227186954964,0.1414278069712487 0.31898227186954964,0.31474619786738744 l0,9.865560119233606 c0,0.17331839089613915 -0.14317634601552034,0.31474619786738744 -0.31898227186954964,0.31474619786738744 l-2.2849144571396267,0 zm-0.3187009823881829,-5.3861809702011 l0,-2.232618184167691 l-5.164756167369284,0 c-0.09901389744098874,0 -0.16821110985713444,0.019688969205801325 -0.2118109794689329,0.061008073595440714 c-0.07144752826707709,0.0709912129110584 -0.08016750218943702,0.12478924144522002 -0.08016750218943702,0.15889830077357991 l0,2.012711809798671 l5.456734649027652,0 z"/>
      <path fill="#FFDE17" d="m72.20308015321532,45.14580880451973 c-0.17580592585402804,0 -0.31898227186954964,-0.1414278069712487 -0.31898227186954964,-0.31474619786738744 l0,-9.865560119233606 c0,-0.17331839089613915 0.14317634601552034,-0.31474619786738744 0.31898227186954964,-0.31474619786738744 l2.2854770361023595,0 c0.17580592585402804,0 0.31898227186954964,0.1414278069712487 0.31898227186954964,0.31474619786738744 l0,7.304607575352272 l5.644917312061805,0 c0.09873260795962249,0 0.16792982037576795,-0.01996627863123515 0.2118109794689329,-0.06156269244630845 c0.07144752826707709,-0.07071390348562462 0.08016750218943702,-0.12423462259435204 0.08016750218943702,-0.15834368192271214 l0,-7.084701200983253 c0,-0.17331839089613915 0.14317634601552034,-0.31474619786738744 0.31898227186954964,-0.31474619786738744 l2.2854770361023595,0 c0.17580592585402804,0 0.31898227186954964,0.1414278069712487 0.31898227186954964,0.31474619786738744 l0,6.936063348950725 c0,0.8987598478310149 -0.31560679809315145,1.6657977185809618 -0.9375378413943595,2.279206167640573 c-0.644996780773259,0.6403074633266926 -1.4115106174968175,0.9650368005096966 -2.2776009306240996,0.9650368005096966 l-8.24965790951508,0 z"/>
      <path fill="#FFDE17" d="m89.01125182278582,45.14580880451973 c-0.17580592585402804,0 -0.31898227186954964,-0.1414278069712487 -0.31898227186954964,-0.31474619786738744 l0,-7.297120220865559 l-3.9709636084500937,0 c-0.17580592585402804,0 -0.31898227186954964,-0.1414278069712487 -0.31898227186954964,-0.31474619786738744 l0,-2.253693700500661 c0,-0.17331839089613915 0.14317634601552034,-0.31474619786738744 0.31898227186954964,-0.31474619786738744 l10.720504713837924,0 c0.17580592585402804,0 0.31898227186954964,0.1414278069712487 0.31898227186954964,0.31474619786738744 l0,2.253693700500661 c0,0.17331839089613915 -0.14317634601552034,0.31474619786738744 -0.31898227186954964,0.31474619786738744 l-3.8263808150277407,0 l0,7.297120220865559 c0,0.17331839089613915 -0.14317634601552034,0.31474619786738744 -0.31898227186954964,0.31474619786738744 l-2.2851957466209933,0 z"/>
      <path fill="#FFDE17" d="m99.77479382727282,45.17603553189201 c-0.8714348132732451,0 -1.6424492816986709,-0.32722512201190895 -2.2913841152110557,-0.9716922267201079 c-0.6247439381148748,-0.6159042338885186 -0.9417571836148566,-1.3865471271691039 -0.9417571836148566,-2.290575854083359 l0,-4.0301378798297165 c0,-0.9045833457651213 0.31729453498134974,-1.675780857896582 0.942601052058957,-2.2922397106359624 c0.6486535440310206,-0.6436351764319008 1.4191054334937114,-0.9705829890183705 2.2905402467669562,-0.9705829890183705 l5.080369322959351,0 c0.8708722343105135,0 1.641886702735935,0.3269478125864753 2.291102825729689,0.9716922267201079 c0.6247439381148748,0.6159042338885186 0.9417571836148566,1.3868244365945377 0.9417571836148566,2.2911304729342272 l0,4.0301378798297165 c0,0.9037514174888248 -0.3170132454999831,1.6746716201948473 -0.942601052058957,2.2914077823596615 c-0.6480909650682882,0.6439124858573303 -1.4188241440123461,0.9708602984438076 -2.2902589572855896,0.9708602984438076 l-5.080369322959351,0 zm5.080369322959351,-2.8895642130204124 c0.13079960883539693,0 0.18818266303415138,-0.03826870070986742 0.2199683744285605,-0.06683157152955102 c0.04753792235092913,-0.04991569657808792 0.07594815996894001,-0.10482296281398429 0.07594815996894001,-0.15612520651924144 l0,-4.3293547498728095 c0,-0.019134350354933764 0,-0.0776466391214701 -0.09001263403726244,-0.16971336836549955 c-0.03741150102173726,-0.03299982162662481 -0.10914031877018068,-0.05324340968329368 -0.20562261087887118,-0.05324340968329368 l-0.638808412183198,0 c-0.02165929006521628,0.00471426023237496 -0.04331858013043269,0.006932735635845568 -0.06497787019564881,0.006932735635845568 l-3.6725154687202965,0 c-0.02194057954658275,0 -0.044443738055898414,-0.002495784828904396 -0.06666560708384763,-0.006932735635845568 l-0.6371206752949989,0 c-0.13108089831676303,0 -0.18818266303415138,0.03799139128443351 -0.21968708494719327,0.06627695267868372 c-0.04838179079502854,0.0501930060035218 -0.07622944945030677,0.10510027223941829 -0.07622944945030677,0.15667982537010905 l0,4.3293547498728095 c0,0.019134350354933764 0,0.0776466391214701 0.09057521299999532,0.17054529664180063 c0.047819211832295754,0.04215103266594102 0.13867571431365683,0.05241148140699215 0.20534132139750458,0.05241148140699215 l0.6393709911459292,0 c0.021096711102483404,-0.0044369508069411374 0.042756001167699675,-0.0066554262104117365 0.06441529123291602,-0.0066554262104117365 l3.6725154687202965,0 c0.02222186902794915,0 0.04416244857453201,0.002495784828904396 0.06554044915838178,0.0066554262104117365 l0.6379645437390963,0 z"/>
      <path fill="#FFDE17" stroke="null" d="m134.37661798701228,45.14580880451973 c-0.20963942467278424,0 -0.38070843566060136,-0.1414278069712487 -0.38070843566060136,-0.31474619786738744 l0,-9.865560119233606 c0,-0.17331839089613915 0.17106619809300389,-0.31474619786738744 0.38070843566060136,-0.31474619786738744 l2.7243251946665907,0 c0.20963942467278424,0 0.38070843566060136,0.1414278069712487 0.38070843566060136,0.31474619786738744 l0,9.865560119233606 c0,0.17331839089613915 -0.17106619809300389,0.31474619786738744 -0.38070843566060136,0.31474619786738744 l-2.7243251946665907,0 z"/>
      <path fill="#FFDE17" d="m143.75806100217414,45.14580880451973 c-0.11954802958073922,0 -0.22812576938818638,-0.06489040555151444 -0.28325850773601036,-0.16971336836549955 l-5.17460129921711,-9.865837428659042 c-0.05063210664596041,-0.0970582989018377 -0.046412764425463576,-0.2146374952857778 0.010970289773291375,-0.3078134622315424 c0.057383054198754745,-0.09345327637119802 0.16174145178570656,-0.1514109462868672 0.2725695074440848,-0.1514109462868672 l2.5732361755402318,0 c0.12011060854347196,0 0.2286883483509196,0.06544502440238185 0.28353979721737654,0.17054529664180063 l3.5802525188321024,6.809332941527468 l3.5737828607606743,-6.8098875603783355 c0.05513273834782333,-0.10482296281398429 0.16371047815527195,-0.16999067779093294 0.28353979721737654,-0.16999067779093294 l2.5737987545029646,0 c0.11082805565837911,0 0.21518645324533067,0.0579576699156688 0.2725695074440848,0.1514109462868672 c0.057383054198754745,0.0931759669457641 0.061602396419251616,0.21103247275513803 0.010970289773291375,0.30753615280610724 l-5.174882588698475,9.865837428659042 c-0.05541402782918964,0.10510027223941829 -0.163991767636638,0.16999067779093294 -0.28353979721737654,0.16999067779093294 l-2.5189473056365097,0 z"/>
      <path fill="#FFDE17" d="m155.7688405670399,45.14580880451973 c-0.8621522603881526,0 -1.6286660971117124,-0.3250066466084384 -2.277882220105467,-0.9655914193605655 c-0.6222123327825766,-0.61313113963418 -0.9378191308757254,-1.3798917009586922 -0.9378191308757254,-2.278651548789705 l0,-6.936063348950725 c0,-0.17331839089613915 0.14345763549688692,-0.31474619786738744 0.3192635613509154,-0.31474619786738744 l10.150893514070876,0 c0.17580592585402804,0 0.3192635613509154,0.1414278069712487 0.3192635613509154,0.31474619786738744 l0,2.253693700500661 c0,0.17331839089613915 -0.14345763549688692,0.31474619786738744 -0.3192635613509154,0.31474619786738744 l-7.546434206098966,0 l0,0.9201126735894168 l7.546434206098966,0 c0.17580592585402804,0 0.3192635613509154,0.1414278069712487 0.3192635613509154,0.31474619786738744 l0,2.259517198434772 c0,0.17331839089613915 -0.14345763549688692,0.31474619786738744 -0.3192635613509154,0.31474619786738744 l-7.546434206098966,0 l0,0.7071390348562429 c0,0.03410905932836025 0.008719973922359809,0.08790708786252142 0.08551200233539932,0.1641671798568227 c0.03769279050310364,0.036882153582698175 0.10745258188198191,0.05573919451219815 0.20646647932297124,0.05573919451219815 l7.254455724440598,0 c0.17580592585402804,0 0.3192635613509154,0.1414278069712487 0.3192635613509154,0.31474619786738744 l0,2.246483655439382 c0,0.17331839089613915 -0.14345763549688692,0.31474619786738744 -0.3192635613509154,0.31474619786738744 l-7.254455724440598,0 l0,-0.0002773094254338208 z"/>
      <path fill="#FFDE17" d="m130.2522278438457,45.14580880451973 c-0.11786029269254056,0 -0.22559416405588903,-0.06378116784977875 -0.2812894813664449,-0.16666296468572644 l-1.5850662274999134,-2.931992555111787 l-4.273068511437655,0 l0,2.783909321930126 c0,0.17331839089613915 -0.14345763549688692,0.31474619786738744 -0.3192635613509154,0.31474619786738744 l-2.2857583255837257,0 c-0.17580592585402804,0 -0.3192635613509154,-0.1414278069712487 -0.3192635613509154,-0.31474619786738744 l0,-5.359004646508586 c0,-0.17331839089613915 0.14345763549688692,-0.31474619786738744 0.3192635613509154,-0.31474619786738744 l8.304790647862902,0 c0.06779076500931341,0 0.12461124024533524,-0.0249578482890439 0.18396332081365535,-0.08125166165210979 c0.03966181687266889,-0.03882331956073516 0.059633370049686434,-0.1026044874105141 0.059633370049686434,-0.19300736010194014 l0,-1.3491103547355379 l-8.48059657371693,0 c-0.09704487107142372,0 -0.1876200840714189,-0.04298296094224231 -0.24865990152793727,-0.11785650580937392 c-0.06075852797515227,-0.074873544867132 -0.08382426544720072,-0.17109991549266806 -0.06300884382608367,-0.26427588243843125 c0.12742413505899924,-0.5765262954769134 0.4216529325683001,-1.0995318718450993 0.8745289975682777,-1.5537647107056978 c0.6222123327825766,-0.6283831580330378 1.389007458987502,-0.9472889972819315 2.2795699569936643,-0.9472889972819315 l8.242625672480917,0 c0.17580592585402804,0 0.3192635613509154,0.1414278069712487 0.3192635613509154,0.31474619786738744 l0,3.9175502531035864 c0,0.8762977843708752 -0.31054358742855565,1.6294701838491306 -0.9229107883633042,2.238164372676366 c-0.23065737472048473,0.2315533702372404 -0.48663080276394954,0.4226195643611435 -0.7622944945030647,0.5693162504156335 l1.5209322257483642,2.9996560549176388 c0.04922565923912785,0.0970582989018377 0.04388115909316562,0.2143601858603442 -0.014064474068322255,0.3061496056789383 c-0.0576643436801213,0.0920667292440289 -0.16146016230433968,0.14919247088339624 -0.2711630600372523,0.14919247088339624 l-2.278163509586833,0 l0,0.0002773094254338208 z"/>
      <path fill="#FFDE17" d="m109.48096867130336,45.08396880264797 c-0.17580592585402804,0 -0.3187009823881829,-0.1414278069712487 -0.3187009823881829,-0.31474619786738744 l0,-5.210366794476059 c0,-0.17331839089613915 0.14289505653415419,-0.31474619786738744 0.3187009823881829,-0.31474619786738744 l2.275631904254534,0 c0.17580592585402804,0 0.3187009823881829,0.1414278069712487 0.3187009823881829,0.31474619786738744 l0,2.5254569374258056 l2.9147216059190955,0 c1.5690327270620261,0 2.4328727243383765,-0.7872814588066173 2.4328727243383765,-2.217088856343397 c0,-1.222379947312282 -1.0914031877018038,-2.2168115469179632 -2.4328727243383765,-2.2168115469179632 l-5.509054492561811,0 c-0.17580592585402804,0 -0.3187009823881829,-0.1414278069712487 -0.3187009823881829,-0.31474619786738744 l0,-2.3701636591828663 c0,-0.17331839089613915 0.14289505653415419,-0.31474619786738744 0.3187009823881829,-0.31474619786738744 l5.7127080770711185,0 c1.9243013420278454,0 3.3751924869159655,0.695769348413458 4.312449038828957,2.0678963854600014 c0.3153255086117847,0.4614428839218788 0.5749556999130133,1.0246583269779679 0.7935176269347395,1.7218142225185966 c0.2511915068602344,0.8022561677800416 0.25147279634160247,2.027963828197531 0.0005625789627328916,2.8512955123105463 c-0.2067477688043373,0.680794639440033 -0.4663779601055655,1.2445647013469876 -0.7940802058974724,1.7240326979220635 c-0.9375378413943595,1.3721270370465453 -2.388428986282478,2.0678963854600014 -4.312449038828957,2.0678963854600014 l-5.7127080770711185,0 l0,0.0002773094254338208 z"/>
    </g>
    <g>
      <path fill="#000" d="m96.97202543493756,48.69509214064719 c0.02475347436024726,-0.11924305293654348 0.05091339612732679,-0.2950572286615852 0.07819847581987163,-0.5279971460259946 c0.32967127216147296,-0.0840247559064483 0.6157426747111473,-0.1414278069712487 0.8593393655744876,-0.1727637720452707 c0.24275282241924231,-0.03078134622315428 0.4798798552111549,-0.04658798347288198 0.7105372299316374,-0.04658798347288198 c0.24725345412110497,0 0.47847340780432296,0.02218475403470578 0.6942224400123864,0.06710888095498484 c0.21574903220806343,0.04436950806941156 0.3949304318384884,0.11702457753307288 0.5378254883726418,0.21713328011468191 s0.2376896117546456,0.2151921141366452 0.2843836656614765,0.3452502346651073 s0.07004108086024467,0.2695447615216743 0.07004108086024467,0.4184599229796364 c0,0.18690655274239606 -0.014345763549688662,0.5005435129080466 -0.04303729064906629,0.940356261646086 c-0.028691527099377397,0.4403673675889087 -0.050350817164593845,0.8471802947003223 -0.06525915967701512,1.220716090759679 s-0.02250315850931564,0.7068617254308089 -0.02250315850931564,0.9994231692634901 c-0.14852084616148278,-0.005546188508676448 -0.2694753231490537,-0.00804197333758083 -0.3628634309627135,-0.00804197333758083 c-0.0880436076676976,0 -0.21321742687576575,0.0027730942543382126 -0.3755214576242044,0.00804197333758083 l0.08776231818633123,-1.1089603923098492 l0.06272755434471727,-1.311950891727406 c-0.09648229210869061,0.07320968831452875 -0.16877368881986696,0.12451193201978565 -0.2168741901335289,0.154461349966639 s-0.10210808173601951,0.05768036049023481 -0.16286660971117153,0.08347013705558036 c-0.060477238493785786,0.025789776565345444 -0.1268615560962664,0.0501930060035218 -0.19999682125154244,0.07320968831452875 c-0.0728539756739092,0.023016682311007244 -0.21434258480123092,0.06294923957347742 -0.42474711686333033,0.11979767178741135 c-0.21012324258073445,0.05684843221393331 -0.35920666770495074,0.10010870258160973 -0.447250275372648,0.13005812052846194 c-0.18987039992235022,0.0596215264682717 -0.33951640400930017,0.11924305293654348 -0.4497818807049461,0.1788645794048148 c-0.10998418721427992,0.0596215264682717 -0.20196584762110792,0.12451193201978565 -0.276226270701849,0.19494852607997656 c-0.07426042308074156,0.07043659406019062 -0.126298977133534,0.14087318812038124 -0.15667824112110998,0.21130978218057178 c-0.03572376413353853,0.0867978501607862 -0.053445001459624455,0.17747803227764586 -0.053445001459624455,0.27204054635057817 c0,0.14614206720362377 0.04388115909316562,0.2734270934777484 0.1319247667608627,0.38185507882237246 s0.19830908436334427,0.1835788396371894 0.3319215880124056,0.2254525628776972 c0.13304992468632848,0.04187372324050732 0.2931036395838353,0.06294923957347742 0.4798798552111549,0.06294923957347742 c0.11532868736024245,0 0.2362831643478136,-0.00776466391214701 0.3625821414813483,-0.023571301161874923 c0.126298977133534,-0.01608394667516168 0.29535395543476783,-0.05684843221393331 0.5068836454223327,-0.12257076604174882 c-0.03853665894720307,0.10482296281398429 -0.08241781804036814,0.26593973899103424 -0.1319247667608627,0.48335032853114956 c-0.20055940021427537,0.03799139128443351 -0.3639885888881804,0.06156269244630845 -0.4902875660217133,0.07126852233649221 c-0.126298977133534,0.00915121103931615 -0.24584700671427298,0.014142780697124867 -0.35836279926085196,0.014142780697124867 c-0.37636532606830314,0 -0.6703128340962378,-0.043260270367676094 -0.8818425240838069,-0.13005812052846194 s-0.3693330890341421,-0.21851982724185093 -0.47397277610246014,-0.39599785951949684 s-0.15667824112110998,-0.37048539237958616 -0.15667824112110998,-0.5790220803058177 c0,-0.12173883776544732 0.018283816288818897,-0.2343264644915787 0.05569531731055621,-0.33720826132752785 c0.03684892205900435,-0.10288179683594748 0.08719973922359833,-0.1963350732071454 0.15020858304968154,-0.2803598291135928 s0.15330276734471235,-0.16777220238746285 0.2700379021117863,-0.25179695829390925 s0.23909605916147803,-0.1530748028394696 0.3668014837018445,-0.2071501407990644 s0.27678884966458156,-0.10759605706832283 0.447250275372648,-0.16056215732618273 c0.17018013622669906,-0.05241148140699215 0.44359351211488346,-0.12368000374348441 0.8199588381831868,-0.21325094815860848 c0.12095447698757128,-0.027176323692514565 0.22390642716769027,-0.05490726623589666 0.30913714002172243,-0.08319282763014652 c0.08523071285403314,-0.028840180245117347 0.16061629386024023,-0.05629381336306578 0.22671932198135467,-0.08347013705558036 s0.12348608231986924,-0.05906690761740387 0.1729930310403642,-0.09539444234923482 c0.04950694872049428,-0.036882153582698175 0.09507584470185865,-0.08125166165210979 0.1361441089813592,-0.13421776190996929 c0.04106826427950102,-0.05241148140699215 0.07144752826707709,-0.10620950994115377 0.09057521299999532,-0.1602848479007487 c0.018846395251551816,-0.05407533795959526 0.028972816580743837,-0.10842798534462389 0.028972816580743837,-0.1625033233042194 c0,-0.13283121478280024 -0.04388115909316562,-0.24652807921066688 -0.13220605624222895,-0.34109059328360114 c-0.0880436076676976,-0.09483982349836674 -0.20252842658384088,-0.1611167761770505 -0.3440170357111623,-0.19910816746148405 s-0.30857456105899056,-0.05684843221393331 -0.5006952768322726,-0.05684843221393331 c-0.17861882066769244,0 -0.3620195625186149,0.014420090122558729 -0.5502022255527641,0.04242834209137463 c-0.18818266303415138,0.028840180245117347 -0.3502054043012234,0.06267193014804356 -0.4863495132825831,0.10177255913421254 s-0.30576166624532575,0.09761291775270522 -0.5091339612732634,0.17609148515047707 z"/>
      <path fill="#000" d="m105.1105739993129,52.155913770061275 c-0.1347376615745272,-0.005546188508676448 -0.2503476384161348,-0.00804197333758083 -0.34626735156209437,-0.00804197333758083 c-0.1102654766956465,0 -0.22418771664905637,0.0027730942543382126 -0.3423292988229647,0.00804197333758083 l0.020534132139750493,-0.78395374570141 c-0.06582173863974834,0.12173883776544732 -0.12320479283850304,0.21602404241294704 -0.1710240046707982,0.282578304517064 s-0.1080151608447149,0.1314446676556312 -0.17918139963042579,0.19494852607997656 c-0.07172881774844354,0.063503858424345 -0.1451453723850854,0.11702457753307288 -0.22053095339129258,0.1602848479007487 s-0.1642730571180039,0.08208358992841133 -0.26553727040992325,0.11591533983133726 c-0.1015455027732866,0.033554440477492294 -0.22053095339129258,0.06211731129717626 -0.35667506237265284,0.08513399360818336 s-0.28072690240371234,0.034663678179227865 -0.4345922487111567,0.034663678179227865 c-0.335015772307437,0 -0.6216497538198452,-0.0501930060035218 -0.8593393655744876,-0.1503017085851313 s-0.41743359034780486,-0.24236843782915984 -0.5397945147422065,-0.4265018963172172 s-0.1831194523695559,-0.4359304167819663 -0.1831194523695559,-0.7556681843071615 c0,-0.04880645887635261 0.0028128948136644564,-0.1314446676556312 0.008157394959626897,-0.24791462633783626 c0.005344500145962445,-0.11646995868220476 0.013501895105589388,-0.2681582143945048 0.024472184878880754,-0.4550647671369012 l0.06919721241614549,-1.3527153772661775 l0.012095447698757129,-0.43454386965479835 c0.0028128948136644564,-0.10010870258160973 0.004219342220496674,-0.2273937288557336 0.004219342220496674,-0.38185507882237246 l0.3800220893260671,0.004159641381507329 c0.0767920284130397,0 0.19521490006831324,-0.0013865471271691094 0.35498732548445405,-0.004159641381507329 c-0.03909923790993588,0.4739218080663995 -0.07594815996894001,0.9924904336276446 -0.11054676617701302,1.555705876683738 c-0.034879895689439305,0.5632154430560906 -0.05231984353415896,0.923440386694623 -0.05231984353415896,1.0803975214901655 c0,0.23820879644765244 0.03909923790993588,0.4284430622952541 0.11729771372980784,0.570980106968237 c0.07819847581987163,0.1419824258221167 0.20899808465526887,0.25179695829390925 0.3918362475434582,0.3288889785645136 c0.18283816288818946,0.07736932969603608 0.389867221173893,0.11591533983133726 0.620524595894376,0.11591533983133726 c0.20337229502793963,0 0.3985871950962535,-0.035218297030095394 0.5853634107235697,-0.10565489109028574 c0.15949113593477485,-0.06239462072261001 0.2942287975093015,-0.14614206720362377 0.404212984723582,-0.25179695829390925 c0.118141582173907,-0.11646995868220476 0.2168741901335289,-0.2667716672673358 0.2970416923229658,-0.4509051257553932 c0.0576643436801213,-0.13532699961170455 0.1015455027732866,-0.3100319376350118 0.1319247667608627,-0.5241148140699211 c0.01912768473291826,-0.154461349966639 0.03853665894720307,-0.4320480848258936 0.0576643436801213,-0.8327602045777637 c0.02194057954658275,-0.4875099699126589 0.03684892205900435,-0.9830619131628949 0.045006317018631246,-1.4866558297507129 l0.38367885258383105,0.004159641381507329 c0.08241781804036814,0 0.19774650540061078,-0.0013865471271691094 0.34626735156209437,-0.004159641381507329 c-0.03853665894720307,0.4875099699126589 -0.08354297596583417,1.2282034452463924 -0.13558153001862625,2.222080426001206 c-0.030379263987576125,0.5471314963809286 -0.04950694872049428,1.1780104392428705 -0.0576643436801213,1.8929141380112604 z"/>
      <path fill="#000" d="m108.32402503444315,51.619874650697696 c-0.030097974506209678,0.13283121478280024 -0.06329013330745024,0.30864539050784345 -0.09901389744098874,0.5279971460259946 c-0.18677621562731986,0.043260270367676094 -0.335015772307437,0.07043659406019062 -0.4449999595217163,0.08125166165210979 s-0.21434258480123092,0.016361256100595575 -0.3130751927608535,0.016361256100595575 c-0.24444055930744066,0 -0.4416244857453186,-0.030226727372286502 -0.5912704898322654,-0.09151211039316108 c-0.14992729356831544,-0.06073076417000703 -0.2644121124844579,-0.1580663724972788 -0.3442983251925281,-0.292561443832682 c-0.07960492322670401,-0.13366314305910176 -0.11954802958073922,-0.3161327449945567 -0.11954802958073922,-0.546299568104627 c0,-0.02967210852141885 0.0014064474068322286,-0.08263820877927894 0.004219342220496674,-0.15834368192271214 s0.01687736888198671,-0.3399813555818654 0.04191213272360043,-0.7919957190389937 l0.10042034484782073,-1.8199817591221654 l-0.5504835150341325,0 c0.010970289773291375,-0.11369686442786672 0.020534132139750493,-0.2762001877320858 0.028972816580743837,-0.4875099699126589 l0.5617350942887898,0 c0.013783184586955807,-0.15168825571230046 0.027847658655278103,-0.4101406402166207 0.0413495537608675,-0.775911772363832 c0.257661164931663,-0.04880645887635261 0.4753792235092919,-0.09483982349836674 0.653435465214252,-0.1381000938660429 c-0.018846395251551816,0.4007121197518713 -0.029816685024843168,0.7054751783036406 -0.03262957983850777,0.9140118662298756 l1.1451294786427948,0 c-0.013783184586955807,0.17054529664180063 -0.02194057954658275,0.3330486199460197 -0.02475347436024726,0.4875099699126589 l-1.1409101364222982,0 l-0.10998418721427992,2.2869708315527193 l-0.004219342220496674,0.17470493802330744 c0,0.19772162033431454 0.02250315850931564,0.3460821629414103 0.06779076500931341,0.44480431839585044 s0.11307837150931069,0.16971336836549955 0.20365358450930615,0.21325094815860848 c0.09057521299999532,0.043260270367676094 0.18508847873912077,0.06489040555151444 0.2841023761801089,0.06489040555151444 c0.06835334397204602,0 0.14261376705278753,-0.005546188508676448 0.2222186902794919,-0.016361256100595575 c0.08016750218943702,-0.01053775816648521 0.2199683744285605,-0.04187372324050732 0.42024648516146806,-0.0931759669457641 z"/>
      <path fill="#000" d="m111.00640152875357,47.94774323910306 c0.28832171840060616,0 0.5631415416956218,0.04048717611333796 0.8241781804036826,0.12173883776544732 s0.48663080276394954,0.20992323505340288 0.6776263606117656,0.38601472020388 s0.3358596407515355,0.3982163349229682 0.43487353819252356,0.6660972398920376 s0.1482395566801164,0.5510138283370019 0.1482395566801164,0.849121460678361 c0,0.3222335523540998 -0.0528824224968916,0.6308789428619421 -0.15836597800930885,0.926213480948959 c-0.10604613447514985,0.2950572286615852 -0.25428569115526617,0.5457449492537596 -0.4449999595217163,0.7515085429256543 c-0.1912768473291827,0.20576359367189595 -0.42474711686333033,0.35689723053332667 -0.7004108086024468,0.45312360115886435 c-0.276226270701849,0.09594906120010228 -0.5721428050993489,0.14420090122558687 -0.8880308926738661,0.14420090122558687 c-0.29394750802793507,0 -0.5712989366552489,-0.043260270367676094 -0.8323355753633086,-0.13005812052846194 s-0.4869120922453162,-0.22212484977249153 -0.6776263606117656,-0.4062583082605478 c-0.1912768473291827,-0.18413345848805734 -0.3358596407515355,-0.409586021365755 -0.43487353819252356,-0.6763576886330914 c-0.09901389744098874,-0.26649435784190145 -0.1482395566801164,-0.546299568104627 -0.1482395566801164,-0.8385837025118746 c0,-0.4414766052906451 0.09057521299999532,-0.8385837025118746 0.2720069284813526,-1.1924305293654291 c0.18143171548135695,-0.3530148985772552 0.44781285433538087,-0.6175680904411187 0.7994247060434346,-0.7917184096135595 c0.35104927274532355,-0.17553686629960866 0.7274145988136255,-0.2626120258858283 1.1285333992421747,-0.2626120258858283 zm-0.01856510577018539,0.5157955313069068 c-0.27960174447824565,0 -0.5367003304471764,0.0690500469330217 -0.7712957579067907,0.2071501407990644 s-0.4081510374627111,0.3460821629414103 -0.5206668300092896,0.6233915883752291 c-0.11223450306521164,0.2778640442846895 -0.16877368881986696,0.5804086274329867 -0.16877368881986696,0.9079110588703295 c0,0.28701525532400535 0.04669405390683,0.545190330402893 0.13980087223912288,0.7736932969603599 c0.09338810781365972,0.22905758540833646 0.2469721646397384,0.4137456627472608 0.4610334599596033,0.5546188508676415 s0.4717224602515279,0.21130978218057178 0.7735460737577217,0.21130978218057178 c0.20562261087887118,0 0.4005562214658178,-0.034663678179227865 0.5842382527981057,-0.10343641568681526 c0.1836820313322887,-0.0693273563584552 0.3442983251925281,-0.1835788396371894 0.4812863026179868,-0.3433090686870716 s0.23881476968011153,-0.3552333739807245 0.3043552188384932,-0.587064053643401 c0.06582173863974834,-0.2312760608118067 0.09901389744098874,-0.4744764269172689 0.09901389744098874,-0.7290464794655166 c0,-0.23820879644765244 -0.0329108693198741,-0.4617201933473127 -0.09901389744098874,-0.670256881273546 c-0.06554044915838178,-0.20853668792623378 -0.16652337296893563,-0.37547696203739467 -0.3021049029875619,-0.5019300600352155 c-0.1358628194999927,-0.12562116972152088 -0.28944687632607197,-0.2143601858603442 -0.4610334599596033,-0.26593973899103424 s-0.34486090415526327,-0.07709202027060272 -0.5203855405279219,-0.07709202027060272 z"/>
      <path fill="#000" d="m116.9686133757967,51.53862298904561 c-0.005625789627328909,0.043260270367676094 -0.019971553177017664,0.12395731316891795 -0.04331858013043269,0.24153650955285821 c-0.023347026953414965,0.11813381523480779 -0.04303729064906629,0.23377184564071113 -0.059633370049686434,0.3474687100685792 c-0.20055940021427537,0.04603336462201452 -0.3935239844316569,0.07709202027060272 -0.5788937526521428,0.09345327637119802 c-0.1856510577018535,0.016361256100595575 -0.34823637793166007,0.02440322943817628 -0.4883185396521485,0.02440322943817628 c-0.29676040284159905,0 -0.5707363576925163,-0.0393779384116026 -0.8219278645527512,-0.11785650580937392 c-0.2517540858229681,-0.07847856739777107 -0.4705973023260621,-0.20770475964993199 -0.6573735179533824,-0.38795588618191645 c-0.18677621562731986,-0.17969650768111597 -0.3240454825341444,-0.40320790458077543 -0.412089090201842,-0.6699795718481137 s-0.1319247667608627,-0.5479634246572295 -0.1319247667608627,-0.8430206533188181 c0,-0.3982163349229682 0.07144752826707709,-0.775911772363832 0.21434258480123092,-1.1333636217480254 s0.3682079311086767,-0.6378116784977901 0.6756573342422,-0.8408021779153445 s0.7265707303695269,-0.30476305855176866 1.256801402745273,-0.30476305855176866 c0.39014851065526,0 0.7704518894626912,0.051579553130690965 1.1414727153850308,0.154461349966639 c0.016596079400620276,0.23016682311007142 0.03150442191304189,0.4198464701068054 0.04528760649999781,0.5687616315647677 c-0.26103663870806065,-0.08125166165210979 -0.47397277610246014,-0.13588161846257216 -0.638808412183198,-0.16472179870768974 c-0.16483563608073679,-0.028285561394249863 -0.31729453498134974,-0.04242834209137463 -0.45737669670183967,-0.04242834209137463 c-0.24162766449377537,0 -0.458220565145938,0.043260270367676094 -0.6489348335123892,0.13005812052846194 c-0.1912768473291827,0.0867978501607862 -0.3538621675589882,0.20992323505340288 -0.4883185396521485,0.3696534641032833 s-0.23150124316458426,0.34940987604661566 -0.29057203425153744,0.5687616315647677 s-0.08832489714906389,0.4428631524178123 -0.08832489714906389,0.670256881273546 c0,0.3061496056789383 0.04810050131366204,0.5740305106480108 0.14430150394098587,0.8041973337580814 s0.2641308230030912,0.40819947423858444 0.5046333295713995,0.5343752628109726 c0.24022121708694366,0.12562116972152088 0.5102591191987308,0.18884771872043263 0.8098324168539933,0.18884771872043263 c0.2911346132142706,-0.0005546188508676449 0.6289632803353693,-0.0640584772752128 1.0134860013632987,-0.1913435035493371 z"/>
      <path fill="#000" d="m118.1472163027221,48.69509214064719 c0.02475347436024726,-0.11924305293654348 0.05091339612732679,-0.2950572286615852 0.07819847581987163,-0.5279971460259946 c0.32967127216147296,-0.0840247559064483 0.6157426747111473,-0.1414278069712487 0.8593393655744876,-0.1727637720452707 c0.24275282241924231,-0.03078134622315428 0.4798798552111549,-0.04658798347288198 0.7105372299316374,-0.04658798347288198 c0.24725345412110497,0 0.47847340780432296,0.02218475403470578 0.6942224400123864,0.06710888095498484 c0.21574903220806343,0.04436950806941156 0.3949304318384884,0.11702457753307288 0.5378254883726418,0.21713328011468191 s0.2376896117546456,0.2151921141366452 0.2843836656614765,0.3452502346651073 s0.07004108086024467,0.2695447615216743 0.07004108086024467,0.4184599229796364 c0,0.18690655274239606 -0.014345763549688662,0.5005435129080466 -0.04303729064906629,0.940356261646086 c-0.028691527099377397,0.4403673675889087 -0.050350817164593845,0.8471802947003223 -0.06525915967701512,1.220716090759679 s-0.02250315850931564,0.7068617254308089 -0.02250315850931564,0.9994231692634901 c-0.14852084616148278,-0.005546188508676448 -0.2694753231490537,-0.00804197333758083 -0.3628634309627135,-0.00804197333758083 c-0.0880436076676976,0 -0.21321742687576575,0.0027730942543382126 -0.3755214576242044,0.00804197333758083 l0.08776231818633123,-1.1089603923098492 l0.06272755434471727,-1.311950891727406 c-0.09648229210869061,0.07320968831452875 -0.16877368881986696,0.12451193201978565 -0.2168741901335289,0.154461349966639 s-0.10210808173601951,0.05768036049023481 -0.16286660971117153,0.08347013705558036 c-0.060477238493785786,0.025789776565345444 -0.1268615560962664,0.0501930060035218 -0.19999682125154244,0.07320968831452875 c-0.0728539756739092,0.023016682311007244 -0.21434258480123092,0.06294923957347742 -0.42474711686333033,0.11979767178741135 c-0.21012324258073445,0.05684843221393331 -0.35920666770495074,0.10010870258160973 -0.447250275372648,0.13005812052846194 c-0.18987039992235022,0.0596215264682717 -0.33951640400930017,0.11924305293654348 -0.4497818807049461,0.1788645794048148 c-0.10998418721427992,0.0596215264682717 -0.20196584762110792,0.12451193201978565 -0.276226270701849,0.19494852607997656 c-0.07426042308074156,0.07043659406019062 -0.126298977133534,0.14087318812038124 -0.15667824112110998,0.21130978218057178 c-0.03572376413353853,0.0867978501607862 -0.053445001459624455,0.17747803227764586 -0.053445001459624455,0.27204054635057817 c0,0.14614206720362377 0.04388115909316562,0.2734270934777484 0.1319247667608627,0.38185507882237246 s0.19830908436334427,0.1835788396371894 0.3319215880124056,0.2254525628776972 c0.13304992468632848,0.04187372324050732 0.2931036395838353,0.06294923957347742 0.4798798552111549,0.06294923957347742 c0.11532868736024245,0 0.2362831643478136,-0.00776466391214701 0.3625821414813483,-0.023571301161874923 c0.126298977133534,-0.01608394667516168 0.29535395543476783,-0.05684843221393331 0.5068836454223327,-0.12257076604174882 c-0.03853665894720307,0.10482296281398429 -0.08241781804036814,0.26593973899103424 -0.1319247667608627,0.48335032853114956 c-0.20055940021427537,0.03799139128443351 -0.3639885888881804,0.06156269244630845 -0.4902875660217133,0.07126852233649221 c-0.126298977133534,0.00915121103931615 -0.24584700671427298,0.014142780697124867 -0.35836279926085196,0.014142780697124867 c-0.37636532606830314,0 -0.6703128340962378,-0.043260270367676094 -0.8818425240838069,-0.13005812052846194 s-0.3693330890341421,-0.21851982724185093 -0.47397277610246014,-0.39599785951949684 s-0.15667824112110998,-0.37048539237958616 -0.15667824112110998,-0.5790220803058177 c0,-0.12173883776544732 0.018283816288818897,-0.2343264644915787 0.05569531731055621,-0.33720826132752785 c0.03684892205900435,-0.10288179683594748 0.08719973922359833,-0.1963350732071454 0.15020858304968154,-0.2803598291135928 s0.15330276734471235,-0.16777220238746285 0.2700379021117863,-0.25179695829390925 s0.23909605916147803,-0.1530748028394696 0.3668014837018445,-0.2071501407990644 s0.27678884966458156,-0.10759605706832283 0.447250275372648,-0.16056215732618273 c0.17018013622669906,-0.05241148140699215 0.44359351211488346,-0.12368000374348441 0.8199588381831868,-0.21325094815860848 c0.12095447698757128,-0.027176323692514565 0.22390642716769027,-0.05490726623589666 0.30913714002172243,-0.08319282763014652 c0.08523071285403314,-0.028840180245117347 0.16061629386024023,-0.05629381336306578 0.22671932198135467,-0.08347013705558036 s0.12348608231986924,-0.05906690761740387 0.1729930310403642,-0.09539444234923482 c0.04950694872049428,-0.036882153582698175 0.09507584470185865,-0.08125166165210979 0.1361441089813592,-0.13421776190996929 c0.04106826427950102,-0.05241148140699215 0.07144752826707709,-0.10620950994115377 0.09057521299999532,-0.1602848479007487 c0.018846395251551816,-0.05407533795959526 0.028972816580743837,-0.10842798534462389 0.028972816580743837,-0.1625033233042194 c0,-0.13283121478280024 -0.04388115909316562,-0.24652807921066688 -0.13220605624222895,-0.34109059328360114 c-0.0880436076676976,-0.09483982349836674 -0.20252842658384088,-0.1611167761770505 -0.3440170357111623,-0.19910816746148405 s-0.30857456105899056,-0.05684843221393331 -0.5006952768322726,-0.05684843221393331 c-0.17861882066769244,0 -0.3620195625186149,0.014420090122558729 -0.5502022255527641,0.04242834209137463 c-0.18818266303415138,0.028840180245117347 -0.3502054043012234,0.06267193014804356 -0.4863495132825831,0.10177255913421254 s-0.3060429557266923,0.09761291775270522 -0.5091339612732634,0.17609148515047707 z"/>
      <path fill="#000" d="m122.35418178603868,52.155913770061275 c0.09901389744098874,-1.562638612319585 0.14795826719875024,-2.809699098495474 0.14795826719875024,-3.7411814585276764 l-0.004219342220496674,-0.3738131054847913 c0.14008216172048965,0.0027730942543382126 0.2556921385620975,0.004159641381507329 0.34626735156209437,0.004159641381507329 c0.1043583975869508,0 0.22109353235402598,-0.0013865471271691094 0.3502054043012234,-0.004159641381507329 l-0.0329108693198741,0.6744165226550521 c0.1015455027732866,-0.16777220238746285 0.19183942629191567,-0.2945026098107186 0.2700379021117863,-0.37991391284433557 c0.07819847581987163,-0.08513399360818336 0.16680466245030198,-0.15557058766837376 0.26553727040992325,-0.21130978218057178 c0.09901389744098874,-0.05518457566133034 0.21096711102483393,-0.09844484602900674 0.3358596407515355,-0.13005812052846194 c0.12489252972670155,-0.03078134622315428 0.2545669806366329,-0.04658798347288198 0.38930464221115996,-0.04658798347288198 c0.11532868736024245,0 0.22925092731365265,0.013588161846257244 0.3420480093415971,0.04048717611333796 c0.0028128948136644564,0.1788645794048148 0.01237673718012357,0.3790819845680328 0.028972816580743837,0.6012068343405249 c-0.17018013622669906,-0.04603336462201452 -0.32263903512731257,-0.0690500469330217 -0.45737669670183967,-0.0690500469330217 c-0.1620227412670725,0 -0.3077306926148906,0.026344395416213102 -0.4365612750807222,0.07931049567407263 c-0.1291118719471977,0.05241148140699215 -0.24528442775154016,0.13283121478280024 -0.34823637793166007,0.23931803414938804 c-0.10295195018011875,0.10731874764288868 -0.18733879459005276,0.2351583927678805 -0.2531605332297999,0.3840735542258433 c-0.05485144886645696,0.11924305293654348 -0.09676358159005743,0.2734270934777484 -0.1254551086894342,0.4631067404744809 s-0.05175726457142595,0.5349298816618406 -0.06807205449067978,1.0357507039953207 c-0.010689000291924902,0.36549382272177616 -0.016314789919253853,0.7528950900528254 -0.016314789919253853,1.1616491831422753 l0,0.27204054635057817 c-0.14852084616148278,-0.005546188508676448 -0.2680688757422224,-0.00804197333758083 -0.3586440887422173,-0.00804197333758083 c-0.08269910752173483,0.0005546188508676449 -0.2078729267298024,0.0033277131052058674 -0.3752401681428376,0.008596592188448488 z"/>
      <path fill="#000" d="m128.73270206550416,51.51006011822592 c-0.0329108693198741,0.14891516145796252 -0.06582173863974834,0.33859480845469647 -0.09901389744098874,0.5687616315647677 c-0.26384953352172535,0.06489040555151444 -0.4922565923912784,0.10898260419549168 -0.6860650450527587,0.13199928650649978 c-0.1935271631801143,0.023016682311007244 -0.3864917473974956,0.034663678179227865 -0.5788937526521428,0.034663678179227865 c-0.3434544567484305,0 -0.6517477283260522,-0.04048717611333796 -0.9248798147328707,-0.12173883776544732 c-0.27369466536955067,-0.08125166165210979 -0.507727513866433,-0.22267946862335816 -0.7026611244533787,-0.42456073033918 c-0.19493361058694658,-0.20160395229038788 -0.335015772307437,-0.43260270367676107 -0.42024648516146806,-0.692441635308253 s-0.12770542454036599,-0.5349298816618406 -0.12770542454036599,-0.8247182312401847 c0,-0.40348521400620985 0.07819847581987163,-0.7778529383418672 0.23487671694098092,-1.1233804824324078 c0.15667824112110998,-0.34497292523967593 0.39211753702482427,-0.6167361621648176 0.7065991771925076,-0.8144577824991319 s0.7136314142266718,-0.2964437757887553 1.1971680326955871,-0.2964437757887553 c0.25006634893476926,0 0.4888811186148811,0.03605022530639671 0.7170068880030667,0.10787336649375634 s0.41743359034780486,0.18052843595741824 0.5684860418415825,0.3269478125864753 s0.26778758626085597,0.3269478125864753 0.3502054043012234,0.5424172361485536 c0.08241781804036814,0.21491480471121177 0.12348608231986924,0.4500731974790908 0.12348608231986924,0.7046432500273386 c0,0.09761291775270522 -0.008157394959626897,0.19217543182563834 -0.02475347436024726,0.2842421610696677 l-3.143972533232747,0 c-0.010970289773291375,0.14891516145796252 -0.016596079400620276,0.2626120258858283 -0.016596079400620276,0.34109059328360114 c0,0.2842421610696677 0.060477238493785786,0.5465768775300608 0.18143171548135695,0.7858949116794497 c0.12095447698757128,0.23987265300025537 0.2992920081738976,0.4215103266594084 0.53557517252171,0.5443584021265918 c0.2362831643478136,0.12340269431805051 0.5082900928291655,0.1849653867643593 0.8157394959626886,0.1849653867643593 c0.35470603600308726,0 0.7859228109378462,-0.0867978501607862 1.2942129037670111,-0.26011624105692377 zm-2.7774523390122714,-1.9334013141245987 l2.455657172329059,0 c-0.0028128948136644564,-0.17054529664180063 -0.013783184586955807,-0.3033765114246022 -0.0329108693198741,-0.3982163349229682 s-0.05485144886645696,-0.19300736010194014 -0.10717129240061563,-0.2945026098107186 c-0.05231984353415896,-0.10177255913421254 -0.12320479283850304,-0.18967964699673373 -0.21209226895029928,-0.26427588243843125 c-0.0894500550745297,-0.074318926016264 -0.19662134747514526,-0.13116735823019723 -0.3215138772018476,-0.17054529664180063 c-0.12517381920806717,-0.03910062898616907 -0.2604740597453279,-0.05878959819197018 -0.40590072161177976,-0.05878959819197018 c-0.15667824112110998,0 -0.30576166624532575,0.021630135183838124 -0.447250275372648,0.06489040555151444 s-0.2663811388540233,0.10288179683594748 -0.37467758918010485,0.1788645794048148 c-0.10885902928881401,0.07570547314343339 -0.2008406896956414,0.16444448928225713 -0.276226270701849,0.2662170484164671 c-0.07566687048757402,0.10121794028334466 -0.1319247667608627,0.19966278631235168 -0.16877368881986696,0.2945026098107186 c-0.03713021154037083,0.09483982349836674 -0.07341655463664226,0.22212484977249153 -0.10914031877018068,0.38185507882237246 z"/>
      <path fill="#000" d="m131.71155767317484,52.07882174979068 l-0.02475347436024726,-0.2983849417667922 c0,-0.03272251220119102 -0.010970289773291375,-0.13643623731344043 -0.0329108693198741,-0.3108638659113144 c0.4230593799751322,0.18136036423371887 0.8132078906303913,0.27204054635057817 1.1701642424844083,0.27204054635057817 c0.18677621562731986,0 0.34486090415526327,-0.02440322943817628 0.47397277610246014,-0.07293237888909486 s0.22587545353725544,-0.12090690948914602 0.2902907447701701,-0.21657866126381417 s0.09704487107142372,-0.19494852607997656 0.09704487107142372,-0.2975530134904896 c0,-0.056571122788499656 -0.009001263403726272,-0.11314224557699953 -0.02672250072981229,-0.16971336836549955 c-0.018002526807452505,-0.05684843221393331 -0.0447250275372649,-0.11120107959896229 -0.08044879167080332,-0.1641671798568227 c-0.03572376413353853,-0.05241148140699215 -0.08860618663043042,-0.11036915132266069 -0.15836597800930885,-0.17415031917244006 c-0.07032237034161119,-0.063503858424345 -0.21603032168942984,-0.18302422078632238 -0.4368425645620896,-0.3591157059367979 c-0.22137482183539173,-0.17609148515047707 -0.38902335272979366,-0.3133596507402178 -0.5026643032018361,-0.4120818061946594 c-0.11420352943477662,-0.09872215545444087 -0.2118109794689329,-0.20049471458865276 -0.292822350102469,-0.3050403679772044 c-0.08101137063353621,-0.10399103453768313 -0.1406447406832224,-0.20909130677710158 -0.17918139963042579,-0.31474619786738744 s-0.0576643436801213,-0.2126963293077409 -0.0576643436801213,-0.3208470052269308 c0,-0.17331839089613915 0.05541402782918964,-0.34109059328360114 0.16708595193166845,-0.5035939165878188 c0.11110934513974549,-0.1625033233042194 0.2720069284813526,-0.2834102327933648 0.48184888158071987,-0.36382996616917473 c0.21040453206210133,-0.07958780509950647 0.4568141177391061,-0.11979767178741135 0.7397913359937507,-0.11979767178741135 c0.3158880875745187,0 0.6632805970620761,0.036604844157264345 1.0424588179440424,0.10981453247179312 c0.010970289773291375,0.21130978218057178 0.02475347436024726,0.4048717611333791 0.04106826427950102,0.5809632462838556 c-0.3077306926148906,-0.12451193201978565 -0.6112420430092844,-0.18690655274239606 -0.9105340511831804,-0.18690655274239606 c-0.1620227412670725,0 -0.31251261379812045,0.021075516332970487 -0.45118832811177706,0.06294923957347742 c-0.13867571431365683,0.04215103266594102 -0.24022121708694366,0.10510027223941829 -0.3049177978012261,0.18912502814586601 s-0.09676358159005743,0.17609148515047707 -0.09676358159005743,0.2762001877320858 c0,0.06489040555151444 0.010970289773291375,0.12728502627412386 0.0329108693198741,0.18690655274239606 s0.06103981745651872,0.12395731316891795 0.11757900321117418,0.19273005067650603 c0.05597660679192256,0.0693273563584552 0.12404866128260211,0.13754547501517544 0.20393487399067245,0.20520897482102807 s0.23825219071737877,0.19494852607997656 0.4756605129906575,0.38185507882237246 s0.4005562214658178,0.3250066466084384 0.4883185396521485,0.4143002815981283 s0.16342918867390527,0.18136036423371887 0.22671932198135467,0.2762001877320858 s0.10914031877018068,0.18912502814586601 0.13811313535092457,0.2823009950916311 c0.028691527099377397,0.093730585796632 0.04303729064906629,0.18912502814586601 0.04303729064906629,0.2864606364731371 c0,0.18967964699673373 -0.057101764717388356,0.36549382272177616 -0.1710240046707982,0.5279971460259946 s-0.28353979721737654,0.28840180245117375 -0.508852671791898,0.3776954374408638 s-0.4779108288415892,0.13394045248453598 -0.7580751522825699,0.13394045248453598 c-0.118141582173907,0 -0.2568172964875638,-0.007487354486713186 -0.4160271429409723,-0.02218475403470578 c-0.15920984645340827,-0.015252018398860225 -0.2947913764720342,-0.03244520277575711 -0.4056194321304134,-0.05296610025785992 c-0.11167192410247878,-0.01996627863123515 -0.249785059453403,-0.0504703154289557 -0.4146206955341398,-0.09123480096772742 z"/>
      <path fill="#000" d="m137.3320028003577,47.94774323910306 c0.28832171840060616,0 0.5631415416956218,0.04048717611333796 0.8241781804036826,0.12173883776544732 s0.48663080276394954,0.20992323505340288 0.6776263606117656,0.38601472020388 s0.3358596407515355,0.3982163349229682 0.43487353819252356,0.6660972398920376 s0.1482395566801164,0.5510138283370019 0.1482395566801164,0.849121460678361 c0,0.3222335523540998 -0.0528824224968916,0.6308789428619421 -0.15836597800930885,0.926213480948959 c-0.10604613447514985,0.2950572286615852 -0.25428569115526617,0.5457449492537596 -0.4449999595217163,0.7515085429256543 c-0.1912768473291827,0.20576359367189595 -0.42474711686333033,0.35689723053332667 -0.7004108086024468,0.45312360115886435 c-0.276226270701849,0.09594906120010228 -0.5721428050993489,0.14420090122558687 -0.8880308926738661,0.14420090122558687 c-0.29394750802793507,0 -0.5712989366552489,-0.043260270367676094 -0.8323355753633086,-0.13005812052846194 s-0.4869120922453162,-0.22212484977249153 -0.6776263606117656,-0.4062583082605478 c-0.1912768473291827,-0.18413345848805734 -0.3358596407515355,-0.409586021365755 -0.43487353819252356,-0.6763576886330914 c-0.09901389744098874,-0.26649435784190145 -0.1482395566801164,-0.546299568104627 -0.1482395566801164,-0.8385837025118746 c0,-0.4414766052906451 0.09057521299999532,-0.8385837025118746 0.2720069284813526,-1.1924305293654291 c0.18143171548135695,-0.3530148985772552 0.44781285433538087,-0.6175680904411187 0.7994247060434346,-0.7917184096135595 c0.35104927274532355,-0.17553686629960866 0.7274145988136255,-0.2626120258858283 1.1285333992421747,-0.2626120258858283 zm-0.018846395251551816,0.5157955313069068 c-0.27960174447824565,0 -0.5367003304471764,0.0690500469330217 -0.7712957579067907,0.2071501407990644 s-0.4081510374627111,0.3460821629414103 -0.5206668300092896,0.6233915883752291 c-0.11223450306521164,0.2778640442846895 -0.16877368881986696,0.5804086274329867 -0.16877368881986696,0.9079110588703295 c0,0.28701525532400535 0.04669405390683,0.545190330402893 0.13980087223912288,0.7736932969603599 c0.09338810781365972,0.22905758540833646 0.2469721646397384,0.4137456627472608 0.4610334599596033,0.5546188508676415 s0.4717224602515279,0.21130978218057178 0.7735460737577217,0.21130978218057178 c0.20562261087887118,0 0.4005562214658178,-0.034663678179227865 0.5842382527981057,-0.10343641568681526 c0.1836820313322887,-0.0693273563584552 0.3442983251925281,-0.1835788396371894 0.4812863026179868,-0.3433090686870716 s0.23881476968011153,-0.3552333739807245 0.3043552188384932,-0.587064053643401 c0.06582173863974834,-0.2312760608118067 0.09901389744098874,-0.4744764269172689 0.09901389744098874,-0.7290464794655166 c0,-0.23820879644765244 -0.0329108693198741,-0.4617201933473127 -0.09901389744098874,-0.670256881273546 c-0.06554044915838178,-0.20853668792623378 -0.16652337296893563,-0.37547696203739467 -0.3021049029875619,-0.5019300600352155 c-0.1358628194999927,-0.12562116972152088 -0.28944687632607197,-0.2143601858603442 -0.4610334599596033,-0.26593973899103424 s-0.34486090415526327,-0.07709202027060272 -0.5203855405279219,-0.07709202027060272 z"/>
      <path fill="#000" d="m140.22872187946936,52.155913770061275 c0.05457015938509052,-0.8341467517049325 0.10829645032608143,-1.8224775439510703 0.16005371489750714,-2.965269686163846 c0.03572376413353853,-0.8313736574505972 0.061883685900617984,-1.6913101857208732 0.07819847581987163,-2.5795322753853998 l0.3833975631024652,0.004159641381507329 c0.07960492322670401,0 0.20224713710247436,-0.0013865471271691094 0.3670827731832117,-0.004159641381507329 l-0.12742413505899924,2.384583749305425 l-0.09029392351862921,2.4128693106996746 l-0.016314789919253853,0.7473489015441485 c-0.1623040307484387,-0.005546188508676448 -0.28325850773601036,-0.00804197333758083 -0.3631447204440798,-0.00804197333758083 c-0.0329108693198741,0 -0.16342918867390527,0.0027730942543382126 -0.39155495806209145,0.00804197333758083 z"/>
      <path fill="#000" d="m146.0348180643541,52.155913770061275 c-0.1347376615745272,-0.005546188508676448 -0.2503476384161348,-0.00804197333758083 -0.34626735156209437,-0.00804197333758083 c-0.1102654766956465,0 -0.22418771664905637,0.0027730942543382126 -0.3423292988229647,0.00804197333758083 l0.020534132139750493,-0.78395374570141 c-0.06582173863974834,0.12173883776544732 -0.12320479283850304,0.21602404241294704 -0.1710240046707982,0.282578304517064 s-0.1080151608447149,0.1314446676556312 -0.17918139963042579,0.19494852607997656 c-0.07172881774844354,0.063503858424345 -0.1451453723850854,0.11702457753307288 -0.22053095339129258,0.1602848479007487 s-0.1642730571180039,0.08208358992841133 -0.26553727040992325,0.11591533983133726 c-0.1015455027732866,0.033554440477492294 -0.22053095339129258,0.06211731129717626 -0.35667506237265284,0.08513399360818336 s-0.28072690240371234,0.034663678179227865 -0.4345922487111567,0.034663678179227865 c-0.335015772307437,0 -0.6216497538198452,-0.0501930060035218 -0.8593393655744876,-0.1503017085851313 s-0.41743359034780486,-0.24236843782915984 -0.5397945147422065,-0.4265018963172172 s-0.1831194523695559,-0.4359304167819663 -0.1831194523695559,-0.7556681843071615 c0,-0.04880645887635261 0.0028128948136644564,-0.1314446676556312 0.008157394959626897,-0.24791462633783626 c0.005344500145962445,-0.11646995868220476 0.013501895105589388,-0.2681582143945048 0.024472184878880754,-0.4550647671369012 l0.06919721241614549,-1.3527153772661775 l0.012095447698757129,-0.43454386965479835 c0.0028128948136644564,-0.10010870258160973 0.004219342220496674,-0.2273937288557336 0.004219342220496674,-0.38185507882237246 l0.3800220893260671,0.004159641381507329 c0.0767920284130397,0 0.19521490006831324,-0.0013865471271691094 0.35498732548445405,-0.004159641381507329 c-0.03909923790993588,0.4739218080663995 -0.07594815996894001,0.9924904336276446 -0.11054676617701302,1.555705876683738 c-0.034879895689439305,0.5632154430560906 -0.05231984353415896,0.923440386694623 -0.05231984353415896,1.0803975214901655 c0,0.23820879644765244 0.03909923790993588,0.4284430622952541 0.11729771372980784,0.570980106968237 c0.07819847581987163,0.1419824258221167 0.20899808465526887,0.25179695829390925 0.3918362475434582,0.3288889785645136 c0.18283816288818946,0.07736932969603608 0.389867221173893,0.11591533983133726 0.620524595894376,0.11591533983133726 c0.20337229502793963,0 0.3985871950962535,-0.035218297030095394 0.5853634107235697,-0.10565489109028574 c0.15949113593477485,-0.06239462072261001 0.2942287975093015,-0.14614206720362377 0.404212984723582,-0.25179695829390925 c0.118141582173907,-0.11646995868220476 0.2168741901335289,-0.2667716672673358 0.2970416923229658,-0.4509051257553932 c0.0576643436801213,-0.13532699961170455 0.1015455027732866,-0.3100319376350118 0.1319247667608627,-0.5241148140699211 c0.01912768473291826,-0.154461349966639 0.03853665894720307,-0.4320480848258936 0.0576643436801213,-0.8327602045777637 c0.02194057954658275,-0.4875099699126589 0.03684892205900435,-0.9830619131628949 0.045006317018631246,-1.4866558297507129 l0.38367885258383105,0.004159641381507329 c0.08241781804036814,0 0.19774650540061078,-0.0013865471271691094 0.34626735156209437,-0.004159641381507329 c-0.03853665894720307,0.4875099699126589 -0.08354297596583417,1.2282034452463924 -0.13558153001862625,2.222080426001206 c-0.030379263987576125,0.5471314963809286 -0.04922565923912785,1.1780104392428705 -0.0576643436801213,1.8929141380112604 z"/>
      <path fill="#000" d="m149.24826909948442,51.619874650697696 c-0.030097974506209678,0.13283121478280024 -0.06329013330745024,0.30864539050784345 -0.09901389744098874,0.5279971460259946 c-0.18677621562731986,0.043260270367676094 -0.335015772307437,0.07043659406019062 -0.4449999595217163,0.08125166165210979 s-0.21434258480123092,0.016361256100595575 -0.3130751927608535,0.016361256100595575 c-0.24444055930744066,0 -0.4416244857453186,-0.030226727372286502 -0.5912704898322654,-0.09151211039316108 c-0.14992729356831544,-0.06073076417000703 -0.2644121124844579,-0.1580663724972788 -0.3442983251925281,-0.292561443832682 c-0.07960492322670401,-0.13366314305910176 -0.11954802958073922,-0.3161327449945567 -0.11954802958073922,-0.546299568104627 c0,-0.02967210852141885 0.0014064474068322286,-0.08263820877927894 0.004219342220496674,-0.15834368192271214 s0.01687736888198671,-0.3399813555818654 0.04191213272360043,-0.7919957190389937 l0.10042034484782073,-1.8199817591221654 l-0.5504835150341325,0 c0.010970289773291375,-0.11369686442786672 0.020534132139750493,-0.2762001877320858 0.028972816580743837,-0.4875099699126589 l0.5617350942887898,0 c0.013783184586955807,-0.15168825571230046 0.027847658655278103,-0.4101406402166207 0.0413495537608675,-0.775911772363832 c0.257661164931663,-0.04880645887635261 0.4753792235092919,-0.09483982349836674 0.653435465214252,-0.1381000938660429 c-0.018846395251551816,0.4007121197518713 -0.029816685024843168,0.7054751783036406 -0.03262957983850777,0.9140118662298756 l1.1451294786427948,0 c-0.013783184586955807,0.17054529664180063 -0.02194057954658275,0.3330486199460197 -0.02475347436024726,0.4875099699126589 l-1.1409101364222982,0 l-0.10998418721427992,2.2869708315527193 l-0.004219342220496674,0.17470493802330744 c0,0.19772162033431454 0.02250315850931564,0.3460821629414103 0.06779076500931341,0.44480431839585044 s0.11307837150931069,0.16971336836549955 0.20365358450930615,0.21325094815860848 c0.09057521299999532,0.043260270367676094 0.18508847873912077,0.06489040555151444 0.2841023761801089,0.06489040555151444 c0.06835334397204602,0 0.14261376705278753,-0.005546188508676448 0.2222186902794919,-0.016361256100595575 c0.08016750218943702,-0.01053775816648521 0.2199683744285605,-0.04187372324050732 0.42024648516146806,-0.0931759669457641 z"/>
      <path fill="#000" d="m149.87470077448748,52.155913770061275 l0.07144752826707709,-1.0235490892762324 l0.07988621270807053,-1.7467720708076369 l0.03347344828260701,-1.3446734039285972 l0.3794595103633338,0.004159641381507329 l0.37102082592234165,-0.004159641381507329 c-0.03066055346894252,0.4223422549357093 -0.058789501605587054,0.8646507885026531 -0.08410555492856724,1.326093672424531 c-0.025316053322980127,0.4619975027727458 -0.0455688959813642,0.9661460382114326 -0.06103981745651872,1.5132775345923597 s-0.023065737472048577,0.9722468455709755 -0.023065737472048577,1.2756233569955755 c-0.17327432052172997,-0.005546188508676448 -0.2970416923229658,-0.00804197333758083 -0.37130211540370806,-0.00804197333758083 c-0.0686346334534128,0 -0.20055940021427537,0.0027730942543382126 -0.39577430028258787,0.00804197333758083 zm0.18930782095961732,-5.000443559422656 c0.008157394959626897,-0.25457005254824766 0.01237673718012357,-0.44674548437388656 0.01237673718012357,-0.5768036049023471 c0.1510524514937809,0.005546188508676448 0.2843836656614765,0.00804197333758083 0.3997123530217183,0.00804197333758083 c0.1457079513478183,0 0.27735142862731393,-0.0027730942543382126 0.395493010801221,-0.00804197333758083 c-0.005625789627328909,0.0840247559064483 -0.013783184586955807,0.2762001877320858 -0.02475347436024726,0.5768036049023471 c-0.1482395566801164,-0.0027730942543382126 -0.27594498122048244,-0.004159641381507329 -0.38311627362109846,-0.004159641381507329 s-0.24022121708694366,0.0013865471271691094 -0.3997123530217183,0.004159641381507329 z"/>
      <path fill="#000" d="m153.83019346146241,47.94774323910306 c0.28832171840060616,0 0.5631415416956218,0.04048717611333796 0.8241781804036826,0.12173883776544732 s0.48663080276394954,0.20992323505340288 0.6776263606117656,0.38601472020388 s0.3358596407515355,0.3982163349229682 0.43487353819252356,0.6660972398920376 s0.1482395566801164,0.5510138283370019 0.1482395566801164,0.849121460678361 c0,0.3222335523540998 -0.0528824224968916,0.6308789428619421 -0.15836597800930885,0.926213480948959 c-0.10604613447514985,0.2950572286615852 -0.25428569115526617,0.5457449492537596 -0.4449999595217163,0.7515085429256543 c-0.1912768473291827,0.20576359367189595 -0.42474711686333033,0.35689723053332667 -0.7004108086024468,0.45312360115886435 c-0.276226270701849,0.09594906120010228 -0.5721428050993489,0.14420090122558687 -0.8880308926738661,0.14420090122558687 c-0.29394750802793507,0 -0.5712989366552489,-0.043260270367676094 -0.8323355753633086,-0.13005812052846194 s-0.4869120922453162,-0.22212484977249153 -0.6776263606117656,-0.4062583082605478 c-0.1912768473291827,-0.18413345848805734 -0.3358596407515355,-0.409586021365755 -0.43487353819252356,-0.6763576886330914 c-0.09901389744098874,-0.26649435784190145 -0.1482395566801164,-0.546299568104627 -0.1482395566801164,-0.8385837025118746 c0,-0.4414766052906451 0.09057521299999532,-0.8385837025118746 0.2720069284813526,-1.1924305293654291 c0.18143171548135695,-0.3530148985772552 0.44781285433538087,-0.6175680904411187 0.7994247060434346,-0.7917184096135595 c0.35104927274532355,-0.17553686629960866 0.7274145988136255,-0.2626120258858283 1.1285333992421747,-0.2626120258858283 zm-0.01856510577018539,0.5157955313069068 c-0.27960174447824565,0 -0.5367003304471764,0.0690500469330217 -0.7712957579067907,0.2071501407990644 s-0.4081510374627111,0.3460821629414103 -0.5206668300092896,0.6233915883752291 c-0.11223450306521164,0.2778640442846895 -0.16877368881986696,0.5804086274329867 -0.16877368881986696,0.9079110588703295 c0,0.28701525532400535 0.04669405390683,0.545190330402893 0.13980087223912288,0.7736932969603599 c0.09338810781365972,0.22905758540833646 0.2469721646397384,0.4137456627472608 0.4610334599596033,0.5546188508676415 s0.4717224602515279,0.21130978218057178 0.7735460737577217,0.21130978218057178 c0.20562261087887118,0 0.4005562214658178,-0.034663678179227865 0.5842382527981057,-0.10343641568681526 c0.1836820313322887,-0.0693273563584552 0.3442983251925281,-0.1835788396371894 0.4812863026179868,-0.3433090686870716 s0.23881476968011153,-0.3552333739807245 0.3043552188384932,-0.587064053643401 c0.06582173863974834,-0.2312760608118067 0.09901389744098874,-0.4744764269172689 0.09901389744098874,-0.7290464794655166 c0,-0.23820879644765244 -0.0329108693198741,-0.4617201933473127 -0.09901389744098874,-0.670256881273546 c-0.06554044915838178,-0.20853668792623378 -0.16652337296893563,-0.37547696203739467 -0.3021049029875619,-0.5019300600352155 c-0.1358628194999927,-0.12562116972152088 -0.28944687632607197,-0.2143601858603442 -0.4610334599596033,-0.26593973899103424 s-0.34486090415526327,-0.07709202027060272 -0.5203855405279219,-0.07709202027060272 z"/>
      <path fill="#000" d="m156.69793972399333,52.155913770061275 c0.13136218779812966,-1.6979656119312847 0.1997155317701761,-3.069538030126962 0.20506003191613845,-4.114994564012465 l0.37130211540370806,0.004159641381507329 c0.09057521299999532,0 0.21012324258073445,-0.0013865471271691094 0.3586440887422173,-0.004159641381507329 l-0.05428886990372402,0.8125166165210956 c0.0686346334534128,-0.11369686442786672 0.12348608231986924,-0.20132664286495425 0.16483563608073679,-0.2617800976095268 c0.04106826427950102,-0.06128538302087439 0.09620100262732444,-0.12534386029608707 0.16483563608073679,-0.19300736010194014 s0.14964600408694909,-0.1306127393793299 0.2430341119006078,-0.18884771872043263 s0.20337229502793963,-0.10704143821745483 0.32995256164284126,-0.14614206720362377 c0.126298977133534,-0.0393779384116026 0.2545669806366329,-0.0684954280821541 0.3850852999906636,-0.08735246901165372 s0.2604740597453279,-0.028562870819683644 0.3895859316925262,-0.028562870819683644 c0.23656445382918023,0 0.46440893373599995,0.028562870819683644 0.6843773081645604,0.08541130303361721 s0.4005562214658178,0.1497470897342643 0.5420448305931388,0.27814135371012155 c0.14148860912732192,0.12894888282672756 0.2362831643478136,0.2728724746268805 0.2843836656614765,0.4328800131021953 s0.07229139671117643,0.3316620728188513 0.07229139671117643,0.5157955313069068 c0,0.035218297030095394 -0.0014064474068322286,0.10288179683594748 -0.004219342220496674,0.20299049941755742 s-0.008157394959626897,0.2315533702372404 -0.016314789919253853,0.39405669354146095 l-0.08185523907763552,1.7021252533127917 c-0.005625789627328909,0.1625033233042194 -0.009282552885092716,0.3616114907657028 -0.012095447698757129,0.5970471929590166 c-0.12376737180123597,-0.005546188508676448 -0.24078379604967678,-0.00804197333758083 -0.3507679832639565,-0.00804197333758083 c-0.1347376615745272,0 -0.26131792818942695,0.0027730942543382126 -0.3797407998447005,0.00804197333758083 c0.027847658655278103,-0.32777974086277706 0.04838179079502854,-0.6430805575810316 0.06244626486335075,-0.9464570690056289 l0.05400758042235762,-0.9464570690056289 c0.016596079400620276,-0.3250066466084384 0.025034763841613576,-0.5701481786919356 0.025034763841613576,-0.7351472868250589 c0,-0.23820879644765244 -0.0413495537608675,-0.4287203717206879 -0.12376737180123597,-0.5707027975428036 c-0.08241781804036814,-0.14253704467298453 -0.2146238742825975,-0.25179695829390925 -0.39577430028258787,-0.3294435974153793 c-0.18171300496272394,-0.07681471084516844 -0.3850852999906636,-0.11563803040590365 -0.6106794640465536,-0.11563803040590365 c-0.3192635613509154,0 -0.5926769372390998,0.07459623544169827 -0.8210839961086512,0.22351139689966057 c-0.20899808465526887,0.1381000938660429 -0.37102082592234165,0.3344351670731883 -0.48663080276394954,0.589005219621437 c-0.07960492322670401,0.18136036423371887 -0.1358628194999927,0.4495185786282248 -0.16905497830123367,0.8041973337580814 c-0.04191213272360043,0.42511534919004806 -0.07144752826707709,1.1009184189722683 -0.0880436076676976,2.0271318999212298 c-0.15330276734471235,-0.005546188508676448 -0.27228821796271846,-0.00804197333758083 -0.3569563518540195,-0.00804197333758083 c-0.08466813389130001,-0.0002773094254338208 -0.21321742687576575,0.002495784828904396 -0.38564787895339586,0.00776466391214701 z"/>
    </g>
  </g>
</svg>